<svg id="4efe95e0-9e44-49e1-911c-b623c679ae5e" xmlns="http://www.w3.org/2000/svg" viewBox="0 0 3630 2176.84"><defs><style>.c8f3a164-f669-4e9c-897c-e6dff17af8f6{fill:#cecdcd;}.e8c6cf76-22c0-4fc9-a654-0ee69fcc005d{fill:#dbd9d9;}.\32 b67b38e-f9bd-4604-80d2-4f555695b1b1,.\35 8b1d4bc-605e-4c08-be1d-28e4f973d367,.bc09fd90-b2dd-4f7a-b979-6672aa519b87,.e8c6cf76-22c0-4fc9-a654-0ee69fcc005d{fill-rule:evenodd;}.\32 b67b38e-f9bd-4604-80d2-4f555695b1b1{fill:#e6e6e6;}.\35 8b1d4bc-605e-4c08-be1d-28e4f973d367{fill:#ccc;}.bc09fd90-b2dd-4f7a-b979-6672aa519b87{fill:#bdbdbd;}.\31 f0ed9ec-170f-4001-b328-caf6e7e831d8{fill:#a2a1a1;}</style></defs><g id="c885e9a5-8da8-4f5c-8b6f-7b8bc416e1c5"><rect class="c8f3a164-f669-4e9c-897c-e6dff17af8f6" x="375" y="69.42" width="2883" height="1989" rx="106" ry="106"/><path class="e8c6cf76-22c0-4fc9-a654-0ee69fcc005d" d="M3152 79.42H481a96 96 0 0 0-96 96v1767a116 116 0 0 0 116 116h2631a116 116 0 0 0 116-116v-1767a96 96 0 0 0-96-96z"/><path class="2b67b38e-f9bd-4604-80d2-4f555695b1b1" d="M3152 79.42H481a96 96 0 0 0-96 96v1737a46 46 0 0 0 46 46h2771a46 46 0 0 0 46-46v-1737a96 96 0 0 0-96-96z"/><path fill="#fffdd8" d="M473 193.42h2686v1682H473z"/><path class="58b1d4bc-605e-4c08-be1d-28e4f973d367" d="M3575 2064.42H57c38.49 37.34 140 43 140 43h3238s101.5-5.66 140-43z"/><path class="2b67b38e-f9bd-4604-80d2-4f555695b1b1" d="M3579.07 2004.35a9.64 9.64 0 0 0-7.07-2.93H60a10 10 0 0 0-10 10v43a10 10 0 0 0 10 10h3512a10 10 0 0 0 10-10v-43a9.64 9.64 0 0 0-2.93-7.07z"/><path class="bc09fd90-b2dd-4f7a-b979-6672aa519b87" d="M1577.08 2001.42c4.59 21 13.4 34 35.92 34h406c22.52 0 31.34-13 35.92-34h-477.84z"/><circle fill="#c13530" cx="1816.5" cy="135.92" r="12"/></g></svg>
