<?xml version="1.0" encoding="utf-8"?>
<!-- Generator: Adobe Illustrator 21.1.0, SVG Export Plug-In . SVG Version: 6.00 Build 0)  -->
<svg version="1.1" id="Layer_1" xmlns="http://www.w3.org/2000/svg" xmlns:xlink="http://www.w3.org/1999/xlink" x="0px" y="0px"
	 viewBox="0 0 231 231.1" style="enable-background:new 0 0 231 231.1;" xml:space="preserve">
<style type="text/css">
	.st0{fill:#FDF1CD;}
</style>
<g>
	<g>
		<path class="st0" d="M177.5,66.8c-5.3,0.2-9-3-9.2-7.8c-0.1-1.8,0.4-3.3,1.6-5.1c1.2-2.3,1.4-2.6,1.4-3.6c-0.1-3.1-4.7-3.2-6-3.1
			C148.1,47.6,143.5,71,139.8,90l-1.8,10c10,1.5,17-0.3,21-2.9c5.6-3.6-1.6-7.3-0.7-11.4c0.9-4.2,4.7-6.2,7.7-6.3
			c4.2-0.1,7.2,4.3,7.2,8.7c-0.1,7.4-9.9,17.5-29.5,17.1c-2.4-0.1-4.6-0.2-6.6-0.5l-3.7,20.4c-3.3,15.4-7.7,36.5-23.4,54.9
			c-13.5,16-27.2,18.5-33.3,18.7c-11.5,0.4-19.1-5.7-19.3-13.9c-0.3-7.9,6.7-12.2,11.3-12.4c6.1-0.2,10.4,4.2,10.5,9.3
			c0.2,4.3-2.1,5.7-3.6,6.5c-1,0.8-2.5,1.6-2.4,3.4c0,0.8,0.9,2.5,3.4,2.4c4.8-0.2,8.1-2.6,10.3-4.2c11.2-9.3,15.5-25.5,21.1-55
			l1.2-7.2c1.9-9.6,4-20.3,7.3-31c-7.9-5.9-12.6-13.3-23.2-16.1c-7.3-2-11.7-0.3-14.8,3.6C74.9,89,76.1,95,79.6,98.6l5.9,6.5
			c7.2,8.3,11.2,14.8,9.7,23.5c-2.4,13.9-18.9,24.6-38.5,18.6c-16.7-5.2-19.9-17-17.9-23.5c1.8-5.7,6.3-6.8,10.8-5.5
			c4.8,1.5,6.7,7.3,5.3,11.8c-0.2,0.5-0.4,1.3-0.9,2.3c-0.6,1.2-1.6,2.3-2,3.7c-1.1,3.5,3.7,6,7.1,7c7.5,2.3,14.8-1.6,16.6-7.7
			c1.7-5.6-1.8-9.5-3.3-10.9l-7.1-7.6c-3.2-3.6-10.4-13.7-6.9-25c1.3-4.4,4.2-9,8.3-12c8.7-6.5,18.1-7.5,27-4.9
			c11.6,3.3,17.2,11,24.4,16.9c4-11.9,9.6-23.5,18.1-33.3c7.6-8.9,17.8-15.4,29.6-15.8h0c11.7-0.4,20.6,4.9,20.8,13.3
			C186.7,59.6,184.7,66.6,177.5,66.8 M115.5,0.1C51.7,0.1,0,51.8,0,115.6s51.7,115.5,115.5,115.5S231,179.3,231,115.6
			S179.3,0.1,115.5,0.1"/>
	</g>
</g>
</svg>
