<?xml version="1.0" encoding="utf-8"?>
<!-- Generator: Adobe Illustrator 21.1.0, SVG Export Plug-In . SVG Version: 6.00 Build 0)  -->
<svg version="1.1" id="Layer_1" xmlns="http://www.w3.org/2000/svg" xmlns:xlink="http://www.w3.org/1999/xlink" x="0px" y="0px"
	 viewBox="0 0 231 231.1" style="enable-background:new 0 0 231 231.1;" xml:space="preserve">
<style type="text/css">
	.st0{fill:#FDF1CD;}
</style>
<g>
	<path class="st0" d="M115.5,231C51.8,231,0,179.2,0,115.5S51.8,0,115.5,0S231,51.8,231,115.5S179.2,231,115.5,231z M115.5,5
		C54.6,5,5,54.6,5,115.5S54.6,226,115.5,226S226,176.4,226,115.5S176.4,5,115.5,5z"/>
	<path class="st0" d="M115.5,16.6c25.8,0,49.3,9.9,66.9,26.1c-8.6-0.2-17.3,4.9-17.6,16.7c-0.7,23.8,28.4,28.8,12.7,76.6l-13,39.5
		L129.2,71.2c-0.5-1.6,0.1-2.5,2.1-2.5h10c0.5,0,0.9-0.4,0.9-1v-5.9c0-0.5-0.4-1-0.9-1c-18.9,0.8-37.8,0.8-56.5,0
		c-0.5,0-0.9,0.4-0.9,1v5.9c0,0.5,0.4,1,0.9,1h10.1c2.2,0,2.9,0.7,3.4,2.2l14.5,39.7l-21.9,66L54.9,70.8c-0.4-1.3,0.1-2.1,1.4-2.1
		h11.5c0.5,0,0.9-0.4,0.9-1v-5.9c0-0.5-0.4-1-0.9-1c-12,0.6-24.1,0.8-35.3,0.9C50.1,34.5,80.7,16.6,115.5,16.6L115.5,16.6z"/>
	<path class="st0" d="M202.5,68.4c7.6,14,11.9,30.1,11.9,47.1c0,37.4-20.8,70-51.5,86.8l30.9-87.4
		C198.6,101.4,203.1,83.1,202.5,68.4L202.5,68.4z"/>
	<path class="st0" d="M148.6,208.8c-10.4,3.7-21.5,5.7-33.1,5.7c-10,0-19.7-1.5-28.8-4.3l30.5-87.4L148.6,208.8L148.6,208.8z"/>
	<path class="st0" d="M73.2,205c-33.5-15.9-56.6-50-56.6-89.4c0-14.6,3.2-28.5,8.9-41L73.2,205L73.2,205z"/>
</g>
</svg>
