<?xml version="1.0" encoding="utf-8"?>
<!-- Generator: Adobe Illustrator 21.1.0, SVG Export Plug-In . SVG Version: 6.00 Build 0)  -->
<svg version="1.1" id="Layer_1" xmlns="http://www.w3.org/2000/svg" xmlns:xlink="http://www.w3.org/1999/xlink" x="0px" y="0px"
	 viewBox="0 0 231 231.1" style="enable-background:new 0 0 231 231.1;" xml:space="preserve">
<style type="text/css">
	.st0{fill:#FDF1CD;}
</style>
<g>
	<path class="st0" d="M151.1,124.9c-1.4,2.8-2.9,5.6-4.5,8.4c-1.6,2.8-3.3,5.6-5,8.3c5-0.7,9.8-1.7,14.4-2.8
		C154.6,134.3,152.9,129.6,151.1,124.9z"/>
	<path class="st0" d="M99.8,142.8c5.2,0.4,10.5,0.7,15.7,0.7c5.3,0,10.6-0.2,15.8-0.7c2.9-4.2,5.7-8.6,8.4-13.4
		c2.6-4.6,5-9.3,7.2-14c-2.2-4.7-4.6-9.3-7.3-13.9c-2.7-4.7-5.6-9.1-8.5-13.3c-5.2-0.4-10.5-0.7-15.7-0.7c-5.3,0-10.6,0.2-15.8,0.7
		c-2.9,4.2-5.7,8.6-8.4,13.4c-2.6,4.6-5.1,9.3-7.2,14c2.2,4.7,4.6,9.3,7.3,13.9C94,134.2,96.8,138.7,99.8,142.8z M115.5,99.5
		c8.8,0,16,7.2,16,16c0,8.8-7.2,16-16,16c-8.8,0-16-7.2-16-16C99.5,106.7,106.6,99.5,115.5,99.5z"/>
	<path class="st0" d="M141.4,89.4c1.7,2.7,3.4,5.4,5,8.2c1.6,2.8,3.1,5.6,4.6,8.4c1.8-4.7,3.4-9.3,4.7-13.8
		C151.2,91.1,146.4,90.1,141.4,89.4z"/>
	<path class="st0" d="M115.5,79.8c3.3,0,6.5,0.1,9.6,0.2c-3.2-4.1-6.5-7.8-9.7-11.2c-3.2,3.4-6.5,7.1-9.6,11.2
		C109,79.8,112.2,79.8,115.5,79.8z"/>
	<path class="st0" d="M157.8,84.6c0.8-3.5,1.4-7,1.8-10.3c1.6-13.4-0.5-23.8-5.2-26.5c-1.1-0.6-2.4-0.9-4-0.9v0
		c-7.3,0-18,5.8-29.4,16.4c4.9,5.1,9.8,11,14.6,17.5C143.4,81.6,150.9,82.9,157.8,84.6z"/>
	<path class="st0" d="M89.5,141.6c-1.7-2.7-3.4-5.4-5-8.2c-1.6-2.8-3.1-5.6-4.6-8.4c-1.8,4.7-3.4,9.3-4.7,13.8
		C79.8,140,84.6,140.9,89.5,141.6z"/>
	<path class="st0" d="M73.2,84.6c6.9-1.7,14.3-3,22.3-3.8c4.7-6.5,9.6-12.3,14.5-17.5C98.5,52.8,87.7,47,80.5,47v0
		c-1.6,0-3,0.3-4,0.9c-4.7,2.8-6.8,13.2-5.1,26.5C71.8,77.7,72.4,81.1,73.2,84.6z"/>
	<path class="st0" d="M89.5,89.4c-5,0.7-9.8,1.7-14.4,2.8c1.3,4.5,2.9,9.2,4.8,13.9c1.4-2.8,2.9-5.6,4.5-8.4
		C86.1,94.9,87.8,92.1,89.5,89.4z"/>
	<path class="st0" d="M173.2,97.8c-3.1-1.3-6.4-2.5-9.8-3.6c-2,6.8-4.5,13.9-7.8,21.2c3.3,7.3,5.9,14.5,7.9,21.3
		c3.4-1.1,6.7-2.2,9.7-3.5c12.4-5.2,20.4-12.2,20.4-17.7C193.6,110,185.6,103.1,173.2,97.8z"/>
	<path class="st0" d="M157.8,146.4c-6.9,1.7-14.3,3-22.3,3.8c-4.7,6.5-9.6,12.3-14.5,17.5c11.4,10.5,22.2,16.3,29.4,16.3
		c1.6,0,3-0.3,4-0.9c4.7-2.8,6.8-13.2,5.1-26.5C159.3,153.3,158.6,149.9,157.8,146.4z"/>
	<path class="st0" d="M115.5,0C51.7,0,0,51.7,0,115.5S51.7,231,115.5,231S231,179.3,231,115.5S179.3,0,115.5,0z M165.5,144.3
		c5.1,22.2,2.9,39.9-7,45.5c-2.3,1.3-5,2-7.9,2c-9.6,0-22.2-6.8-35-18.6c-12.7,11.9-25.3,18.8-35,18.8c-2.9,0-5.6-0.6-7.9-2
		c-9.9-5.7-12.1-23.4-7.1-45.6c-21.8-6.7-36.1-17.5-36.1-28.8c0-11.3,14.2-22.1,35.9-28.8c-5.1-22.2-2.9-39.9,7-45.5
		c2.3-1.3,5-2,7.9-2v0c9.6,0,22.2,6.8,35,18.6c12.7-11.9,25.3-18.8,35-18.8v0c2.9,0,5.5,0.6,7.8,2c9.9,5.7,12.1,23.4,7.1,45.6
		c21.8,6.7,36.1,17.5,36.1,28.8C201.3,126.9,187.2,137.6,165.5,144.3z"/>
	<path class="st0" d="M115.5,151.3c-3.3,0-6.5-0.1-9.6-0.2c3.2,4.1,6.5,7.8,9.7,11.2c3.2-3.4,6.5-7.1,9.6-11.2
		C122,151.2,118.8,151.3,115.5,151.3z"/>
	<path class="st0" d="M67.5,94.3c-3.4,1.1-6.7,2.2-9.7,3.5c-12.4,5.2-20.4,12.2-20.4,17.7c0,5.5,8,12.4,20.4,17.7
		c3,1.3,6.3,2.5,9.8,3.6c2-6.8,4.5-13.9,7.8-21.2C72.1,108.3,69.5,101.1,67.5,94.3z"/>
	<path class="st0" d="M73.2,146.5c-0.8,3.5-1.4,7-1.8,10.3c-1.6,13.4,0.5,23.8,5.2,26.5c1,0.6,2.4,0.9,4,0.9c7.3,0,18-5.8,29.4-16.4
		c-4.9-5.1-9.8-11-14.6-17.5C87.6,149.4,80.1,148.1,73.2,146.5z"/>
</g>
</svg>
