<?xml version="1.0" encoding="utf-8"?>
<!-- Generator: Adobe Illustrator 21.1.0, SVG Export Plug-In . SVG Version: 6.00 Build 0)  -->
<svg version="1.1" id="Layer_1" xmlns="http://www.w3.org/2000/svg" xmlns:xlink="http://www.w3.org/1999/xlink" x="0px" y="0px"
	 viewBox="0 0 478.8 118.5" style="enable-background:new 0 0 478.8 118.5;" xml:space="preserve">
<style type="text/css">
	.st0{fill:#FDF1CD;}
</style>
<g>
	<path class="st0" d="M174,21.6c0-11.7-9.5-21.2-21.2-21.2c-7.2,0-13.6,3.6-17.4,9.2C126.1,3.5,115,0,103,0
		C70.1,0,43.9,26.5,43.9,59.4c0,32.9,26.2,59.1,59.1,59.1s59.3-26.2,59.3-59.1c0-6.2-0.9-12.2-2.7-17.8C168,38.8,174,30.9,174,21.6z
		 M103,92.2c-17.9,0-32.8-14.8-32.8-32.8c0-18.1,14.8-33.1,32.8-33.1c18.1,0,32.9,15,32.9,33.1C136,77.4,121.1,92.2,103,92.2z
		 M152.8,38c-9,0-16.4-7.3-16.4-16.4c0-9,7.3-16.4,16.4-16.4c9,0,16.4,7.3,16.4,16.4C169.2,30.6,161.8,38,152.8,38z"/>
	<path class="st0" d="M463.4,74c0,0.5,0.4,0.9,0.9,0.9h1.8c0.5,0,0.9-0.4,0.9-0.9V59l11.5-15.7c0.4-0.6,0-1.4-0.8-1.4h-2.2
		c-0.3,0-0.6,0.2-0.8,0.4l-9.5,13.1l-9.5-13.1c-0.1-0.2-0.4-0.4-0.8-0.4h-2.2c-0.8,0-1.1,0.8-0.8,1.4L463.4,59V74z M423.3,74
		c0,0.5,0.4,0.9,0.9,0.9h1.8c0.5,0,0.9-0.4,0.9-0.9V45.1h8.2c0.5,0,0.9-0.4,0.9-0.9v-1.4c0-0.5-0.4-0.9-0.9-0.9h-19.9
		c-0.5,0-0.9,0.4-0.9,0.9v1.4c0,0.5,0.4,0.9,0.9,0.9h8.2V74z M391.2,74c0,0.5,0.4,0.9,0.9,0.9h1.9c0.5,0,0.9-0.4,0.9-0.9V42.8
		c0-0.5-0.4-0.9-0.9-0.9h-1.9c-0.5,0-0.9,0.4-0.9,0.9V74z M340.7,74c0,0.5,0.4,0.9,0.9,0.9h1.6c0.5,0,0.9-0.4,0.9-0.9V48.4h0
		l21.6,26.9h0.8c0.5,0,0.9-0.4,0.9-0.8V42.8c0-0.5-0.4-0.9-0.9-0.9H365c-0.5,0-0.9,0.4-0.9,0.9v25.1H364l-21.2-26.4h-1.2
		c-0.5,0-0.9,0.4-0.9,0.8V74z M292.5,62.7c0,7.1,5,12.6,12.4,12.6c7.4,0,12.5-5.5,12.5-12.6V42.8c0-0.5-0.4-0.9-0.9-0.9h-1.8
		c-0.5,0-0.9,0.4-0.9,0.9v19.7c0,5.4-3.4,9.5-8.9,9.5c-5.5,0-8.8-4.2-8.8-9.5V42.8c0-0.5-0.4-0.9-0.9-0.9h-1.8
		c-0.5,0-0.9,0.4-0.9,0.9V62.7z M235.9,73.7c-0.1,0.7,0.1,1.1,0.8,1.1h1.9c0.4,0,0.8-0.3,0.8-0.7l4.1-24.2h0.2l8.7,24.8
		c0.1,0.3,0.5,0.5,0.8,0.5h0.8c0.3,0,0.7-0.2,0.8-0.5l8.7-24.8h0.2l4.2,24.2c0.1,0.3,0.5,0.7,0.8,0.7h1.9c0.7,0,1-0.5,0.8-1.1
		l-6.1-31.6c-0.1-0.4-0.5-0.7-0.8-0.7h-0.8c-0.3,0-0.7,0.2-0.8,0.5l-9.2,25.9h-0.2L244.4,42c-0.1-0.3-0.5-0.5-0.8-0.5h-0.8
		c-0.4,0-0.8,0.3-0.8,0.7L235.9,73.7z M181.3,73.7c-0.1,0.7,0.1,1.1,0.8,1.1h1.9c0.4,0,0.8-0.3,0.8-0.7L189,50h0.2l8.7,24.8
		c0.1,0.3,0.5,0.5,0.8,0.5h0.8c0.3,0,0.7-0.2,0.8-0.5L209,50h0.2l4.2,24.2c0.1,0.3,0.5,0.7,0.8,0.7h1.9c0.7,0,1-0.5,0.8-1.1
		l-6.1-31.6c-0.1-0.4-0.5-0.7-0.8-0.7h-0.8c-0.3,0-0.7,0.2-0.8,0.5l-9.2,25.9h-0.2L189.8,42c-0.1-0.3-0.5-0.5-0.8-0.5h-0.8
		c-0.4,0-0.8,0.3-0.8,0.7L181.3,73.7z M0.2,58.5c0,9.4,7.6,16.9,17,16.9c4.2,0,8.2-1.5,11.4-4.6c0.3-0.3,0.4-1,0-1.3l-1.4-1.3
		c-0.3-0.2-0.7-0.2-1.1,0.1c-2.5,1.9-4.9,3.5-9,3.5C9.7,71.9,4,65.6,4,58.4c0-7.3,5.7-13.5,13.1-13.5c3.2,0,6.5,1.4,9,3.5
		c0.5,0.5,0.8,0.5,1.2,0l1.3-1.3c0.4-0.4,0.3-0.9,0-1.3c-3.2-2.7-6.6-4.4-11.4-4.4C7.8,41.5,0.2,49,0.2,58.5"/>
</g>
</svg>
