<?xml version="1.0" encoding="utf-8"?>
<!-- Generator: Adobe Illustrator 21.1.0, SVG Export Plug-In . SVG Version: 6.00 Build 0)  -->
<svg version="1.1" id="Layer_1" xmlns="http://www.w3.org/2000/svg" xmlns:xlink="http://www.w3.org/1999/xlink" x="0px" y="0px"
	 viewBox="0 0 478.8 163.6" style="enable-background:new 0 0 478.8 163.6;" xml:space="preserve">
<style type="text/css">
	.st0{fill:#FDF1CD;}
</style>
<g>
	<g>
		<path class="st0" d="M161,51.2c5.2,0,10.4,1.9,14.4,5.4c0.7,0.7,1.9,0.7,2.7,0l8.3-8.6c0.9-0.9,0.9-2.1-0.1-3
			c-7.2-6.6-15.1-9.9-25.8-9.9c-21.3,0-38.5,17.2-38.5,38.5c0,21.3,17.2,38.3,38.5,38.3c9.5,0,18.6-3.3,25.9-10.3
			c0.7-0.7,0.9-2.1,0.1-2.9l-8.3-8.8c-0.6-0.7-2-0.7-2.8-0.1c-3.8,3.3-9.3,5.1-14.3,5.1c-12,0-21-9.8-21-21.6
			C140.2,61.2,149,51.2,161,51.2z"/>
		<path class="st0" d="M243.4,95.1H218V38.2c0-1.1-1-2-2-2h-12.7c-1.2,0-2,1-2,2v70.5c0,1.1,0.9,2,2,2h40.1c1.2,0,2-1,2-2V97.1
			C245.4,96.1,244.6,95.1,243.4,95.1z"/>
		<path class="st0" d="M478.3,106.7l-27.2-35.4l24.9-31.2c1.2-1.6,0.1-3.9-1.9-3.9h-13.4c-0.6,0-1.6,0.5-2,1.1l-23.7,29.5v-28
			c0-1.4-1.2-2.6-2.6-2.6H420c-1.5,0-2.6,1.2-2.6,2.6v69.5c0,1.4,1.1,2.6,2.6,2.6h12.5c1.4,0,2.6-1.2,2.6-2.6V76.4l24.6,33.5
			c0.2,0.3,1.2,0.7,1.9,0.7h14.7C478.3,110.6,479.5,108.3,478.3,106.7z"/>
		<path class="st0" d="M377.2,51.2c5.2,0,10.4,1.9,14.4,5.4c0.7,0.7,1.9,0.7,2.7,0l8.3-8.6c0.9-0.9,0.9-2.1-0.1-3
			c-7.2-6.6-15.1-9.9-25.8-9.9c-21.3,0-38.5,17.2-38.5,38.5c0,21.3,17.2,38.3,38.5,38.3c9.5,0,18.6-3.3,25.9-10.3
			c0.7-0.7,0.9-2.1,0.1-2.9l-8.3-8.8c-0.6-0.7-2-0.7-2.8-0.1c-3.8,3.3-9.3,5.1-14.3,5.1c-12,0-21-9.8-21-21.6
			C356.3,61.2,365.2,51.2,377.2,51.2z"/>
		<path class="st0" d="M290.3,35.1C269,35.1,252,52.3,252,73.6c0,21.3,16.9,38.3,38.3,38.3s38.4-16.9,38.4-38.3
			C328.6,52.3,311.6,35.1,290.3,35.1z M290.3,94.8c-11.6,0-21.2-9.6-21.2-21.2c0-11.7,9.6-21.4,21.2-21.4c11.7,0,21.3,9.7,21.3,21.4
			C311.6,85.2,302,94.8,290.3,94.8z"/>
	</g>
	<path class="st0" d="M400.3,162.9c0,0.4,0.3,0.7,0.7,0.7h1.5c0.4,0,0.7-0.3,0.7-0.7v-12l9.2-12.5c0.3-0.5,0-1.1-0.6-1.1H410
		c-0.3,0-0.5,0.2-0.6,0.3l-7.6,10.5l-7.6-10.5c-0.1-0.1-0.3-0.3-0.6-0.3h-1.8c-0.6,0-0.9,0.6-0.6,1.1l9.1,12.6V162.9z M364.6,162.9
		c0,0.4,0.3,0.7,0.7,0.7h1.4c0.4,0,0.7-0.3,0.7-0.7v-23.1h6.5c0.4,0,0.7-0.3,0.7-0.7V138c0-0.4-0.3-0.7-0.7-0.7h-16
		c-0.4,0-0.7,0.3-0.7,0.7v1.1c0,0.4,0.3,0.7,0.7,0.7h6.5V162.9z M335.3,162.9c0,0.4,0.3,0.7,0.7,0.7h1.5c0.4,0,0.7-0.3,0.7-0.7V138
		c0-0.4-0.3-0.7-0.7-0.7H336c-0.4,0-0.7,0.3-0.7,0.7V162.9z M291.2,162.9c0,0.4,0.3,0.7,0.7,0.7h1.3c0.4,0,0.7-0.3,0.7-0.7v-20.5h0
		l17.3,21.6h0.7c0.4,0,0.7-0.3,0.7-0.7V138c0-0.4-0.3-0.7-0.7-0.7h-1.3c-0.4,0-0.7,0.3-0.7,0.7v20.1h-0.1l-17-21.1h-0.9
		c-0.4,0-0.7,0.3-0.7,0.7V162.9z M248.9,153.9c0,5.7,4,10.1,9.9,10.1c5.9,0,10-4.4,10-10.1V138c0-0.4-0.3-0.7-0.7-0.7h-1.4
		c-0.4,0-0.7,0.3-0.7,0.7v15.8c0,4.3-2.7,7.6-7.1,7.6c-4.4,0-7.1-3.3-7.1-7.6V138c0-0.4-0.3-0.7-0.7-0.7h-1.4
		c-0.4,0-0.7,0.3-0.7,0.7V153.9z M200,162.7c-0.1,0.5,0.1,0.9,0.7,0.9h1.5c0.3,0,0.6-0.3,0.7-0.5l3.3-19.4h0.1l7,19.9
		c0.1,0.2,0.4,0.4,0.6,0.4h0.7c0.2,0,0.6-0.2,0.6-0.4l6.9-19.9h0.2l3.3,19.4c0.1,0.3,0.4,0.5,0.7,0.5h1.5c0.6,0,0.8-0.4,0.7-0.9
		l-4.9-25.3c-0.1-0.3-0.4-0.5-0.7-0.5h-0.6c-0.3,0-0.6,0.2-0.6,0.4l-7.3,20.7h-0.2l-7.4-20.7c-0.1-0.2-0.4-0.4-0.6-0.4h-0.6
		c-0.3,0-0.6,0.2-0.7,0.5L200,162.7z M152.6,162.7c-0.1,0.5,0.1,0.9,0.7,0.9h1.5c0.3,0,0.6-0.3,0.7-0.5l3.3-19.4h0.2l7,19.9
		c0.1,0.2,0.4,0.4,0.6,0.4h0.7c0.2,0,0.6-0.2,0.6-0.4l6.9-19.9h0.1l3.3,19.4c0.1,0.3,0.4,0.5,0.7,0.5h1.5c0.6,0,0.8-0.4,0.7-0.9
		l-4.9-25.3c-0.1-0.3-0.4-0.5-0.7-0.5h-0.6c-0.3,0-0.6,0.2-0.6,0.4l-7.3,20.7h-0.2l-7.4-20.7c-0.1-0.2-0.4-0.4-0.6-0.4h-0.6
		c-0.3,0-0.6,0.2-0.7,0.5L152.6,162.7z M109.3,150.5c0-6,4.9-10.9,10.9-10.9c6,0,10.9,5,10.9,10.9s-4.9,10.9-10.9,10.9
		C114.2,161.4,109.3,156.5,109.3,150.5 M106.7,150.5c0,7.5,6,13.5,13.5,13.5c7.5,0,13.5-6,13.5-13.5s-6-13.6-13.5-13.6
		C112.6,136.9,106.7,143,106.7,150.5 M65.2,150.5c0,7.5,6.1,13.5,13.6,13.5c3.3,0,6.6-1.2,9.1-3.6c0.3-0.3,0.3-0.8,0-1l-1.1-1
		c-0.2-0.1-0.5-0.2-0.9,0.1c-2,1.5-3.9,2.8-7.2,2.8c-5.9,0-10.5-5-10.5-10.8c0-5.8,4.6-10.8,10.5-10.8c2.6,0,5.2,1.1,7.2,2.8
		c0.4,0.4,0.7,0.4,1,0l1-1c0.3-0.3,0.3-0.8,0-1.1c-2.6-2.2-5.3-3.5-9.1-3.5C71.3,136.9,65.2,143,65.2,150.5"/>
</g>
<path class="st0" d="M123.2,20.4c0-11.1-9-20.1-20.1-20.1c-6.9,0-12.9,3.4-16.5,8.7C77.8,3.3,67.3,0,56,0C24.8,0,0,25.1,0,56.3
	c0,0,0,0,0,0c0,0,0,0,0,0c0,30.2,23.3,54.4,53.1,55.9c1,0,1.9,0.1,2.9,0.1c31.2,0,56.2-24.8,56.2-56c0-5.9-0.9-11.5-2.5-16.9
	C117.5,36.8,123.2,29.3,123.2,20.4z M66.7,85.5c-3.3,1.2-6.9,1.9-10.7,1.9c-17,0-31-14-31-31c0-4.3,0.9-8.4,2.5-12.1
	C32.2,33,43.2,25,56,25c17.2,0,31.2,14.2,31.2,31.3C87.2,69.6,78.6,81.1,66.7,85.5z M103.1,36c-8.6,0-15.5-6.9-15.5-15.5
	c0-8.6,6.9-15.5,15.5-15.5c8.6,0,15.5,6.9,15.5,15.5C118.7,29,111.7,36,103.1,36z"/>
</svg>
