<svg xmlns="http://www.w3.org/2000/svg" xmlns:xlink="http://www.w3.org/1999/xlink" viewBox="0 0 20 20" version="1.1" shape-rendering="crispEdges"><path d="M17 20v-3h-1v-1h-4v-2H8v2H4v1H3v3h14z" fill="#e0b687"/><path d="M14 14v-1h1v-1h1v-1h1V9h1V7h-1V4h-1V3h-1V2H5v1H4v1H3v3H2v2h1v2h1v1h1v1h1v1h8z" fill="#e3bd93"/><path d="M5 7h3v3H5V7zm7 0h3v3h-3V7z" fill="#ffffff"/><path d="M6 8h1v1H6V8zm7 0h1v1h-1V8z" fill="#647b90"/><path d="M6 5h1v1h1v1H5V6h1V5zm7 0h1v1h1v1h-3V6h1V5z" fill-rule="evenodd" fill="#9c9389"/><path d="M11 11v1H9v1H8v-1h1v-1h2z" fill="#c78275"/><path d="M4 16v4h4v-1H7v-1H6v-1H5v-1H4zm12 0v4h-4v-1h1v-1h1v-1h1v-1h1z" fill-rule="evenodd" fill="#d11141"/><path d="M2 14h2V7h1V6h1V5h1V4h1V3h6v1h1v1h1v9h2V3h-1V2h-1V1H4v1H3v1H2v11z" fill="#b5ac9f"/></svg>